# xmcd
#
# Track frame offsets: 
#        150
#        4900
#        25420
#        37635
#        56577
#        90045
#        128992
#        146027
#        166680
#        187470
#        217427
#
# Disc length: 3166 seconds
#
# Revision: 4
# Processed by: cddbd v1.5.2PL0 Copyright (c) Steve Scherf et al.
# Submitted via: ExactAudioCopy v0.99pb5
#
DISCID=970c5c0b
DTITLE=The Kingsmen - Live In Dayton
DYEAR=1990
DGENRE=Southern Gospel
TTITLE0=Introductions
TTITLE1=Go And Tell Somebody
TTITLE2=Real Good, Feel Good Song
TTITLE3=In The Name Of Jesus
TTITLE4=When He Comes
TTITLE5=The Name That Set Me Free
TTITLE6=Group Introductions
TTITLE7=Just Over In The Gloryland
TTITLE8=Raise Your Hands
TTITLE9=The Judgement
TTITLE10=My Friends
EXTD=YEAR: 1990 ID3G: 38
EXTT0=
EXTT1=
EXTT2=
EXTT3=
EXTT4=
EXTT5=
EXTT6=
EXTT7=
EXTT8=
EXTT9=
EXTT10=
PLAYORDER=
